<svg width="24" height="24" viewBox="0 0 24 24" fill="none" xmlns="http://www.w3.org/2000/svg">
<path d="M12.0001 2.99996C11.2044 2.99996 10.4413 3.31603 9.87874 3.87864C9.31613 4.44125 9.00006 5.20431 9.00006 5.99996C9.00006 6.79561 9.31613 7.55867 9.87874 8.12128C10.4413 8.68389 11.2044 8.99996 12.0001 8.99996C12.7957 8.99996 13.5588 8.68389 14.1214 8.12128C14.684 7.55867 15.0001 6.79561 15.0001 5.99996C15.0001 5.20431 14.684 4.44125 14.1214 3.87864C13.5588 3.31603 12.7957 2.99996 12.0001 2.99996ZM7.00006 5.99996C7.00025 5.05393 7.26883 4.12737 7.77459 3.32788C8.28036 2.5284 9.00256 1.8888 9.85731 1.48339C10.7121 1.07797 11.6643 0.923358 12.6034 1.03752C13.5425 1.15168 14.43 1.52992 15.1627 2.12832C15.8955 2.72672 16.4434 3.52071 16.7429 4.41808C17.0424 5.31545 17.0811 6.27938 16.8547 7.1979C16.6282 8.11642 16.1458 8.95185 15.4635 9.60716C14.7812 10.2625 13.927 10.7108 13.0001 10.9V17H11.0001V10.9C9.87069 10.6694 8.85566 10.0558 8.12675 9.16286C7.39784 8.26995 6.99982 7.15261 7.00006 5.99996ZM3.10506 11H8.00006V13H4.89506L4.11706 20H19.8831L19.1051 13H16.0001V11H20.8951L22.1171 22H1.88306L3.10506 11Z" fill="#0F5A5F"/>
</svg>
