<svg width="25" height="25" viewBox="0 0 25 25" fill="none" xmlns="http://www.w3.org/2000/svg">
<path d="M8.20303 7.03125C7.66222 7.03125 7.13355 6.87088 6.68389 6.57043C6.23422 6.26997 5.88375 5.84292 5.67679 5.34328C5.46983 4.84363 5.41568 4.29384 5.52119 3.76343C5.6267 3.23301 5.88712 2.74579 6.26953 2.36338C6.65194 1.98097 7.13916 1.72055 7.66957 1.61504C8.19999 1.50954 8.74978 1.56368 9.24942 1.77064C9.74907 1.9776 10.1761 2.32807 10.4766 2.77774C10.777 3.2274 10.9374 3.75607 10.9374 4.29688C10.9366 5.02182 10.6482 5.71684 10.1356 6.22946C9.62299 6.74207 8.92797 7.03042 8.20303 7.03125ZM8.20303 3.125C7.97125 3.125 7.74468 3.19373 7.55197 3.3225C7.35925 3.45127 7.20905 3.63429 7.12035 3.84842C7.03166 4.06255 7.00845 4.29818 7.05367 4.5255C7.09888 4.75282 7.21049 4.96163 7.37438 5.12552C7.53827 5.28941 7.74708 5.40102 7.9744 5.44623C8.20173 5.49145 8.43735 5.46824 8.65148 5.37955C8.86561 5.29085 9.04864 5.14065 9.1774 4.94793C9.30617 4.75522 9.3749 4.52865 9.3749 4.29688C9.3749 3.98608 9.25144 3.688 9.03167 3.46824C8.8119 3.24847 8.51383 3.125 8.20303 3.125ZM17.5577 24.4633L15.1093 18.75H9.56162C8.87305 18.749 8.20399 18.5212 7.6579 18.1018C7.11181 17.6823 6.71911 17.0947 6.54053 16.4297L5.26396 11.643C5.05583 10.8623 5.16632 10.031 5.57114 9.33185C5.97595 8.63269 6.64193 8.12298 7.42256 7.91484C8.20318 7.70671 9.03452 7.81721 9.73368 8.22202C10.4328 8.62684 10.9425 9.29281 11.1507 10.0734L11.7968 12.5H16.4061V14.0625H10.5968L9.64131 10.4766C9.53024 10.1074 9.27991 9.79594 8.94329 9.60806C8.60666 9.42019 8.21015 9.37064 7.83765 9.46991C7.46515 9.56917 7.14587 9.80947 6.94738 10.1399C6.74889 10.4704 6.68675 10.8652 6.77412 11.2406L8.0499 16.0266C8.1391 16.3594 8.33556 16.6535 8.60886 16.8634C8.88215 17.0733 9.21703 17.1872 9.56162 17.1875H16.1397L18.9944 23.8477L17.5577 24.4633ZM23.4374 4.6875H20.3124V1.5625H18.7499V4.6875H15.6249V6.25H18.7499V9.375H20.3124V6.25H23.4374V4.6875Z" fill="#0F5A5F"/>
<path d="M14.0626 21.875H6.06885C5.72446 21.8751 5.3897 21.7614 5.1166 21.5516C4.8435 21.3418 4.64737 21.0476 4.55869 20.7149L1.58838 9.57659L3.09854 9.17346L6.06885 20.3125H14.0626V21.875Z" fill="#0F5A5F"/>
</svg>
