<svg width="26" height="26" viewBox="0 0 26 26" fill="none" xmlns="http://www.w3.org/2000/svg">
<path d="M12.9999 18.0007C12.7905 18.0007 12.6132 17.9281 12.468 17.783C12.3228 17.6378 12.2503 17.4601 12.2503 17.25C12.2503 17.0398 12.3225 16.8625 12.4669 16.718C12.6128 16.5729 12.7905 16.5003 12.9999 16.5003C13.2094 16.5003 13.3867 16.5725 13.5318 16.717C13.677 16.8614 13.7496 17.0391 13.7496 17.25C13.7496 17.4608 13.6774 17.6385 13.5329 17.783C13.3885 17.9274 13.2108 18.0007 12.9999 18.0007ZM12.4583 13.9165V4.33337H13.5416V13.9165H12.4583ZM6.08392 21.6667C5.58486 21.6667 5.1685 21.4999 4.83484 21.1662C4.50117 20.8325 4.33397 20.4158 4.33325 19.916V17.2911H5.41659V19.916C5.41659 20.0829 5.48592 20.236 5.62459 20.3754C5.76325 20.5148 5.916 20.5841 6.08283 20.5834H19.917C20.0831 20.5834 20.2359 20.514 20.3753 20.3754C20.5146 20.2367 20.584 20.0836 20.5833 19.916V17.2911H21.6666V19.916C21.6666 20.4151 21.4998 20.8315 21.1661 21.1651C20.8324 21.4988 20.4157 21.666 19.9159 21.6667H6.08392Z" fill="#85878D" fill-opacity="0.93"/>
</svg>
