<svg width="24" height="24" viewBox="0 0 24 24" fill="none" xmlns="http://www.w3.org/2000/svg">
<path d="M9 20.5C8.028 20.5 7.20167 20.1597 6.521 19.479C5.84033 18.7983 5.5 17.972 5.5 17V8.479C4.91667 8.26233 4.43767 7.932 4.063 7.488C3.68833 7.044 3.50067 6.55 3.5 6.006C3.5 5.31 3.743 4.71833 4.229 4.231C4.71433 3.74367 5.304 3.5 5.998 3.5C6.692 3.5 7.28233 3.74367 7.769 4.231C8.25567 4.71833 8.49933 5.31033 8.5 6.007C8.5 6.54967 8.31267 7.043 7.938 7.487C7.56333 7.931 7.084 8.262 6.5 8.48V17C6.5 17.6873 6.74533 18.276 7.236 18.766C7.726 19.2553 8.31533 19.5 9.004 19.5C9.69267 19.5 10.2807 19.2553 10.768 18.766C11.2553 18.2767 11.4993 17.688 11.5 17V7C11.5 6.028 11.8403 5.20167 12.521 4.521C13.2017 3.84033 14.028 3.5 15 3.5C15.972 3.5 16.7983 3.84033 17.479 4.521C18.1597 5.20167 18.5 6.028 18.5 7V15.521C19.0833 15.7377 19.5627 16.068 19.938 16.512C20.3133 16.956 20.5007 17.4497 20.5 17.993C20.5 18.6897 20.2573 19.2817 19.772 19.769C19.286 20.2563 18.696 20.5 18.002 20.5C17.308 20.5 16.7177 20.2563 16.231 19.769C15.7443 19.2817 15.5007 18.69 15.5 17.994C15.5 17.4507 15.6877 16.9527 16.063 16.5C16.4383 16.0473 16.9173 15.721 17.5 15.521V7C17.5 6.31267 17.255 5.724 16.765 5.234C16.2743 4.74467 15.6847 4.5 14.996 4.5C14.3073 4.5 13.7193 4.745 13.232 5.235C12.7447 5.725 12.5007 6.31333 12.5 7V17C12.5 17.972 12.1597 18.7983 11.479 19.479C10.7983 20.1597 9.972 20.5 9 20.5ZM6 7.5C6.41133 7.5 6.76433 7.353 7.059 7.059C7.353 6.76433 7.5 6.41133 7.5 6C7.5 5.58867 7.353 5.23567 7.059 4.941C6.76433 4.647 6.41133 4.5 6 4.5C5.58867 4.5 5.23567 4.647 4.941 4.941C4.647 5.23567 4.5 5.58867 4.5 6C4.5 6.41133 4.647 6.76433 4.941 7.059C5.23567 7.353 5.58867 7.5 6 7.5ZM18 19.5C18.4113 19.5 18.7643 19.353 19.059 19.059C19.353 18.7643 19.5 18.4113 19.5 18C19.5 17.5887 19.353 17.2357 19.059 16.941C18.7643 16.647 18.4113 16.5 18 16.5C17.5887 16.5 17.2357 16.647 16.941 16.941C16.647 17.2357 16.5 17.5887 16.5 18C16.5 18.4113 16.647 18.7643 16.941 19.059C17.2357 19.353 17.5887 19.5 18 19.5Z" fill="#85878D" fill-opacity="0.93"/>
</svg>
