<svg width="27" height="27" viewBox="0 0 27 27" fill="none" xmlns="http://www.w3.org/2000/svg">
<path d="M3.375 11.25H2.8125C2.8125 11.3992 2.87176 11.5423 2.97725 11.6477C3.08274 11.7532 3.22582 11.8125 3.375 11.8125V11.25ZM3.375 15.75V15.1875C3.22582 15.1875 3.08274 15.2468 2.97725 15.3523C2.87176 15.4577 2.8125 15.6008 2.8125 15.75H3.375ZM23.625 11.25V11.8125C23.7742 11.8125 23.9173 11.7532 24.0227 11.6477C24.1282 11.5423 24.1875 11.3992 24.1875 11.25H23.625ZM23.625 15.75H24.1875C24.1875 15.6008 24.1282 15.4577 24.0227 15.3523C23.9173 15.2468 23.7742 15.1875 23.625 15.1875V15.75ZM5.625 6.1875H11.25V5.0625H5.625V6.1875ZM11.25 6.1875H21.375V5.0625H11.25V6.1875ZM21.375 20.8125H11.25V21.9375H21.375V20.8125ZM11.25 20.8125H5.625V21.9375H11.25V20.8125ZM10.6875 5.625V21.375H11.8125V5.625H10.6875ZM4.5675 12.3075C4.88351 12.6239 5.06101 13.0528 5.06101 13.5C5.06101 13.9472 4.88351 14.3761 4.5675 14.6925L5.364 15.489C5.62524 15.2278 5.83248 14.9177 5.97386 14.5765C6.11525 14.2352 6.18802 13.8694 6.18802 13.5C6.18802 13.1306 6.11525 12.7648 5.97386 12.4235C5.83248 12.0823 5.62524 11.7722 5.364 11.511L4.5675 12.3075ZM22.4325 14.6925C22.1165 14.3761 21.939 13.9472 21.939 13.5C21.939 13.0528 22.1165 12.6239 22.4325 12.3075L21.636 11.511C21.3748 11.7722 21.1675 12.0823 21.0261 12.4235C20.8847 12.7648 20.812 13.1306 20.812 13.5C20.812 13.8694 20.8847 14.2352 21.0261 14.5765C21.1675 14.9177 21.3748 15.2278 21.636 15.489L22.4325 14.6925ZM3.375 11.8125C3.80812 11.8125 4.239 11.9767 4.5675 12.3075L5.364 11.511C5.10278 11.2499 4.79268 11.0427 4.45141 10.9014C4.11013 10.7601 3.74437 10.6874 3.375 10.6875V11.8125ZM3.9375 11.25V7.875H2.8125V11.25H3.9375ZM3.9375 19.125V15.75H2.8125V19.125H3.9375ZM4.5675 14.6925C4.239 15.0233 3.80812 15.1875 3.375 15.1875V16.3125C4.09387 16.3125 4.815 16.038 5.364 15.489L4.5675 14.6925ZM22.4325 12.3075C22.761 11.9767 23.1919 11.8125 23.625 11.8125V10.6875C22.9061 10.6875 22.185 10.962 21.636 11.511L22.4325 12.3075ZM23.0625 7.875V11.25H24.1875V7.875H23.0625ZM23.0625 15.75V19.125H24.1875V15.75H23.0625ZM23.625 15.1875C23.1919 15.1875 22.761 15.0233 22.4325 14.6925L21.636 15.489C21.8972 15.7501 22.2073 15.9573 22.5486 16.0986C22.8899 16.2399 23.2556 16.3126 23.625 16.3125V15.1875ZM5.625 20.8125C5.17745 20.8125 4.74822 20.6347 4.43176 20.3182C4.11529 20.0018 3.9375 19.5726 3.9375 19.125H2.8125C2.8125 19.8709 3.10882 20.5863 3.63626 21.1137C4.16371 21.6412 4.87908 21.9375 5.625 21.9375V20.8125ZM21.375 21.9375C22.1209 21.9375 22.8363 21.6412 23.3637 21.1137C23.8912 20.5863 24.1875 19.8709 24.1875 19.125H23.0625C23.0625 19.5726 22.8847 20.0018 22.5682 20.3182C22.2518 20.6347 21.8226 20.8125 21.375 20.8125V21.9375ZM21.375 6.1875C21.8226 6.1875 22.2518 6.36529 22.5682 6.68176C22.8847 6.99822 23.0625 7.42745 23.0625 7.875H24.1875C24.1875 7.12908 23.8912 6.41371 23.3637 5.88626C22.8363 5.35882 22.1209 5.0625 21.375 5.0625V6.1875ZM5.625 5.0625C4.87908 5.0625 4.16371 5.35882 3.63626 5.88626C3.10882 6.41371 2.8125 7.12908 2.8125 7.875H3.9375C3.9375 7.42745 4.11529 6.99822 4.43176 6.68176C4.74822 6.36529 5.17745 6.1875 5.625 6.1875V5.0625Z" fill="#0F5A5F"/>
</svg>
