<svg width="27" height="27" viewBox="0 0 27 27" fill="none" xmlns="http://www.w3.org/2000/svg">
<path d="M13.5 5C14.5609 5 15.5783 5.42143 16.3284 6.17157C17.0786 6.92172 17.5 7.93913 17.5 9C17.5 10.0609 17.0786 11.0783 16.3284 11.8284C15.5783 12.5786 14.5609 13 13.5 13C12.4391 13 11.4217 12.5786 10.6716 11.8284C9.92143 11.0783 9.5 10.0609 9.5 9C9.5 7.93913 9.92143 6.92172 10.6716 6.17157C11.4217 5.42143 12.4391 5 13.5 5ZM13.5 16.25C15.9255 16.25 18.0957 16.7422 19.6411 17.5149C21.2162 18.3024 22 19.2982 22 20.25V22H5V20.25C5 19.2982 5.78381 18.3024 7.35892 17.5149C8.90425 16.7422 11.0745 16.25 13.5 16.25Z" fill="#0F5A5F" stroke="#0F5A5F"/>
</svg>
