<svg width="26" height="26" viewBox="0 0 26 26" fill="none" xmlns="http://www.w3.org/2000/svg">
<path d="M11.375 5.95829C11.375 5.81463 11.4321 5.67686 11.5337 5.57528C11.6352 5.47369 11.773 5.41663 11.9167 5.41663H14.0833C14.227 5.41663 14.3648 5.47369 14.4664 5.57528C14.5679 5.67686 14.625 5.81463 14.625 5.95829C14.625 6.10195 14.5679 6.23973 14.4664 6.34131C14.3648 6.44289 14.227 6.49996 14.0833 6.49996H11.9167C11.773 6.49996 11.6352 6.44289 11.5337 6.34131C11.4321 6.23973 11.375 6.10195 11.375 5.95829Z" fill="#85878D" fill-opacity="0.93"/>
<path fill-rule="evenodd" clip-rule="evenodd" d="M18.0721 10.0317C17.8754 10.186 17.6203 10.3095 17.3126 10.4098C17.3264 10.5491 17.3332 10.6903 17.3332 10.8333C17.333 11.4201 17.2136 12.0007 16.9823 12.54C16.7509 13.0792 16.4125 13.5659 15.9875 13.9704C15.5625 14.3749 15.0597 14.689 14.5097 14.8934C13.9597 15.0978 13.3739 15.1885 12.7879 15.1597C12.2018 15.131 11.6277 14.9836 11.1003 14.7264C10.5729 14.4691 10.1032 14.1075 9.7198 13.6633C9.33635 13.2192 9.04711 12.7018 8.8696 12.1425C8.6921 11.5832 8.63002 10.9937 8.68715 10.4098C8.37948 10.3095 8.12435 10.186 7.92827 10.0317C7.67369 9.83125 7.50306 9.56367 7.48302 9.24192C7.46406 8.94346 7.58214 8.68996 7.70023 8.51121C7.81675 8.34186 7.95517 8.18868 8.1119 8.05567C8.18845 7.98922 8.26176 7.93018 8.33181 7.87854C8.31087 7.76696 8.28884 7.63335 8.26573 7.47771C8.17026 6.79487 8.1232 6.10614 8.1249 5.41667C8.1249 5.24658 8.19748 5.11983 8.23106 5.06621C8.27331 4.9985 8.32315 4.94054 8.36865 4.89396C8.4591 4.79917 8.5761 4.70275 8.70448 4.61012C8.96448 4.42162 9.32198 4.20983 9.74665 4.01158C10.5933 3.61617 11.7562 3.25 12.9999 3.25C14.2436 3.25 15.4065 3.61671 16.2531 4.01158C16.6183 4.17849 16.9672 4.37885 17.2953 4.61012C17.4237 4.70275 17.5407 4.79971 17.6311 4.89396C17.6766 4.94054 17.7265 4.9985 17.7687 5.06621C17.8023 5.11983 17.8749 5.24658 17.8749 5.41667C17.8749 6.28442 17.8045 6.9875 17.7341 7.47771C17.711 7.63371 17.6889 7.76732 17.668 7.87854C17.7373 7.93 17.8126 7.98904 17.8884 8.05567C18.0239 8.17429 18.1788 8.32867 18.2996 8.51121C18.4182 8.68996 18.5357 8.94346 18.5173 9.24246C18.4973 9.56367 18.3266 9.83125 18.0721 10.0317ZM9.20931 5.58892C9.21744 6.31908 9.2781 6.9095 9.33823 7.32225C9.35267 7.41975 9.3664 7.50678 9.3794 7.58333H16.6204C16.6338 7.50642 16.6475 7.41939 16.6616 7.32225C16.7211 6.9095 16.7824 6.31908 16.7905 5.58892C16.7483 5.55332 16.7047 5.51935 16.6599 5.48708C16.4644 5.34571 16.1676 5.1675 15.7949 4.99363C15.0458 4.64371 14.0421 4.33333 12.9999 4.33333C11.9577 4.33333 10.954 4.64371 10.2049 4.99363C9.83223 5.1675 9.5354 5.34571 9.3404 5.48654C9.2954 5.51915 9.25167 5.55348 9.20931 5.58946M9.0934 8.66667L9.09177 8.66775C8.99826 8.73001 8.90871 8.79803 8.82365 8.87142C8.72723 8.95592 8.65031 9.03825 8.60373 9.10975C8.5929 9.12599 8.58295 9.14281 8.57394 9.16012L8.59777 9.18017C8.67902 9.24408 8.85344 9.33779 9.1936 9.43042C9.26077 9.44847 9.33281 9.46617 9.40973 9.4835L9.4146 9.48458C9.68652 9.54471 10.0213 9.59833 10.4291 9.64058C11.0071 9.70071 11.7346 9.74025 12.6435 9.74892L12.9999 9.75C14.7479 9.75 15.8783 9.64113 16.5857 9.48458L16.5901 9.4835C16.6673 9.46653 16.7396 9.44883 16.8067 9.43042C17.1464 9.33833 17.3213 9.24408 17.402 9.18017L17.4259 9.16012C17.417 9.14282 17.4073 9.12601 17.3966 9.10975C17.3334 9.02141 17.2593 8.94134 17.1761 8.87142C17.0913 8.79805 17.0019 8.73003 16.9086 8.66775L16.9064 8.66667H9.0934ZM12.8526 10.8333C14.2836 10.8333 15.393 10.7575 16.2434 10.6253C16.2477 10.6939 16.2499 10.7633 16.2499 10.8333C16.2495 11.2671 16.1623 11.6963 15.9934 12.0959C15.8246 12.4954 15.5774 12.857 15.2666 13.1595C14.9558 13.462 14.5875 13.6993 14.1836 13.8572C13.7796 14.0152 13.3481 14.0907 12.9146 14.0793C12.481 14.0679 12.054 13.9699 11.659 13.7909C11.2639 13.612 10.9086 13.3557 10.6141 13.0373C10.3195 12.7189 10.0917 12.3448 9.94405 11.9369C9.79638 11.5291 9.73184 11.0959 9.75423 10.6627C10.5467 10.7721 11.5623 10.8333 12.8526 10.8333ZM8.70881 21.0584C8.68046 21.2599 8.66634 21.4632 8.66656 21.6667V22.2083C8.66662 22.3274 8.62744 22.4432 8.55509 22.5378C8.48273 22.6323 8.38123 22.7004 8.26628 22.7315C8.15133 22.7626 8.02934 22.7549 7.91919 22.7097C7.80903 22.6645 7.71685 22.5842 7.6569 22.4813C7.29166 22.6788 6.86468 22.729 6.4636 22.6216L5.4171 22.341C5.00097 22.2293 4.64624 21.9569 4.4309 21.5838C4.21555 21.2106 4.15724 20.7671 4.26877 20.351L4.6891 18.7812C4.80069 18.365 5.07303 18.0101 5.44623 17.7947C5.81944 17.5792 6.26294 17.5208 6.67919 17.6323L7.72569 17.9124C8.08969 18.0099 8.39194 18.2238 8.6021 18.5033C9.10363 17.8055 9.76416 17.2371 10.529 16.8452C11.2939 16.4534 12.141 16.2493 13.0004 16.25C13.8594 16.2496 14.7061 16.4536 15.4705 16.8452C16.2349 17.2369 16.8952 17.8049 17.3966 18.5023C17.6147 18.2139 17.9227 18.0065 18.2719 17.9129L19.3184 17.6329C19.7346 17.5213 20.1781 17.5797 20.5512 17.795C20.9244 18.0103 21.1968 18.3651 21.3085 18.7812L21.7294 20.3515C21.7846 20.5576 21.7987 20.7726 21.7708 20.9842C21.7429 21.1958 21.6736 21.3998 21.5669 21.5846C21.4601 21.7694 21.318 21.9314 21.1487 22.0613C20.9794 22.1911 20.7861 22.2864 20.58 22.3416L19.534 22.6216C19.1337 22.7291 18.7073 22.6795 18.3424 22.483C18.2822 22.5857 18.1899 22.6658 18.0797 22.7108C17.9695 22.7558 17.8475 22.7632 17.7327 22.732C17.6178 22.7007 17.5164 22.6325 17.4442 22.5378C17.372 22.4432 17.333 22.3274 17.3332 22.2083V21.6667C17.3334 21.4632 17.3193 21.2599 17.291 21.0584L14.4721 21.814C14.3413 22.0941 14.1333 22.331 13.8725 22.497C13.6117 22.663 13.309 22.7512 12.9999 22.7512C12.6908 22.7512 12.3881 22.663 12.1273 22.497C11.8665 22.331 11.6585 22.0941 11.5276 21.814L8.70881 21.0584ZM11.4399 20.6684C11.5123 20.4213 11.6424 20.195 11.8195 20.008C11.9965 19.8211 12.2154 19.6789 12.4582 19.5932V17.3669C11.6985 17.463 10.9777 17.7585 10.3691 18.2233C9.76052 18.6882 9.28581 19.3058 8.99319 20.0135L11.4399 20.6684ZM17.0066 20.013C16.7139 19.3054 16.2392 18.6878 15.6306 18.2231C15.022 17.7584 14.3013 17.463 13.5416 17.3669V19.5926C14.0312 19.766 14.4136 20.1668 14.5599 20.6689L17.0066 20.013ZM18.1696 19.623C18.1511 19.5542 18.1464 19.4826 18.1557 19.412C18.165 19.3415 18.188 19.2735 18.2236 19.2119C18.2592 19.1502 18.3065 19.0962 18.3629 19.0529C18.4194 19.0096 18.4838 18.9778 18.5525 18.9594L19.599 18.6788C19.7377 18.6418 19.8855 18.6613 20.0098 18.7331C20.1341 18.8049 20.2248 18.9231 20.262 19.0618L20.6829 20.6315C20.7013 20.7003 20.706 20.7719 20.6968 20.8425C20.6875 20.913 20.6644 20.981 20.6289 21.0426C20.5933 21.1043 20.546 21.1583 20.4895 21.2016C20.4331 21.2449 20.3687 21.2767 20.2999 21.2951L19.2534 21.5757C19.1847 21.5941 19.113 21.5988 19.0424 21.5895C18.9719 21.5802 18.9038 21.557 18.8422 21.5214C18.7806 21.4858 18.7266 21.4384 18.6833 21.3819C18.64 21.3254 18.6083 21.2609 18.5899 21.1922L18.1696 19.623ZM6.39915 18.6788C6.33039 18.6603 6.25867 18.6555 6.18807 18.6648C6.11747 18.674 6.04939 18.6971 5.98771 18.7326C5.92603 18.7682 5.87197 18.8156 5.82862 18.8721C5.78527 18.9285 5.75347 18.993 5.73506 19.0618L5.31473 20.631C5.2963 20.6997 5.29158 20.7714 5.30085 20.8419C5.31012 20.9125 5.3332 20.9805 5.36876 21.0421C5.40432 21.1037 5.45167 21.1577 5.50811 21.201C5.56455 21.2444 5.62897 21.2761 5.69769 21.2945L6.74419 21.5751C6.8129 21.5936 6.88457 21.5983 6.95511 21.589C7.02565 21.5797 7.09367 21.5567 7.15528 21.5211C7.2169 21.4855 7.27091 21.4382 7.31423 21.3817C7.35754 21.3253 7.38931 21.2609 7.40773 21.1922L7.82806 19.6224C7.84657 19.5537 7.85135 19.4819 7.84212 19.4113C7.83289 19.3407 7.80983 19.2727 7.77426 19.211C7.73869 19.1493 7.69131 19.0952 7.63483 19.0519C7.57835 19.0085 7.51388 18.9767 7.4451 18.9583L6.39915 18.6788ZM13.5416 21.125C13.5416 21.2687 13.4845 21.4064 13.3829 21.508C13.2813 21.6096 13.1436 21.6667 12.9999 21.6667C12.8562 21.6667 12.7185 21.6096 12.6169 21.508C12.5153 21.4064 12.4582 21.2687 12.4582 21.125C12.4582 20.9813 12.5153 20.8436 12.6169 20.742C12.7185 20.6404 12.8562 20.5833 12.9999 20.5833C13.1436 20.5833 13.2813 20.6404 13.3829 20.742C13.4845 20.8436 13.5416 20.9813 13.5416 21.125Z" fill="#85878D" fill-opacity="0.93"/>
</svg>
